<svg xmlns="http://www.w3.org/2000/svg" xmlns:xlink="http://www.w3.org/1999/xlink" width="66208" height="2656"><g transform="translate(127200 3888)"><path d="M-125380.5-3578c8.56 0 15.5 26.86 15.5 60s-6.94 60-15.5 60h-124c-8.56 0-15.5-26.86-15.5-60s6.94-60 15.5-60z" stroke="#ef8d22" stroke-width="2" fill="#e5e5e5"/><path d="M-125380.5-3458c-8.56 0-15.5-26.86-15.5-60s6.94-60 15.5-60" stroke="#ef8d22" stroke-width="2" fill="none"/><use xlink:href="#a" transform="matrix(1,0,0,1,-125515,-3573) translate(6.950000000000003 47.8)"/><use xlink:href="#b" transform="matrix(1,0,0,1,-125515,-3573) translate(58.45 47.8)"/><use xlink:href="#c" transform="matrix(1,0,0,1,-125515,-3573) translate(27.025 69.4)"/><path d="M-125300-3560c0-1.66 1.34-3 3-3h154c1.66 0 3 1.34 3 3v100c0 1.66-1.34 3-3 3h-154c-1.66 0-3-1.34-3-3z" stroke="#b2b2b2" stroke-width="2" fill="#e5e5e5"/><use xlink:href="#d" transform="matrix(1,0,0,1,-125295,-3558) translate(35.25 40.8)"/><use xlink:href="#e" transform="matrix(1,0,0,1,-125295,-3558) translate(44.55 62.4)"/><path d="M-125356-3369c8.84 0 16 26.86 16 60s-7.16 60-16 60h-128c-8.84 0-16-26.86-16-60s7.16-60 16-60z" stroke="#0c7cba" stroke-width="2" fill="#e5e5e5"/><path d="M-125356-3249c-8.84 0-16-26.86-16-60s7.16-60 16-60" stroke="#0c7cba" stroke-width="2" fill="none"/><use xlink:href="#f" transform="matrix(1,0,0,1,-125495,-3364) translate(34.7 47.8)"/><use xlink:href="#g" transform="matrix(1,0,0,1,-125495,-3364) translate(22.025 69.4)"/><path d="M-61889.33-1501.67c0 6.63-26.87 12-60 12-33.14 0-60-5.37-60-12v-96c0-6.62 26.86-12 60-12 33.13 0 60 5.38 60 12z" stroke="#b2b2b2" stroke-width="2" fill="#e5e5e5"/><path d="M-61889.33-1597.67c0 6.63-26.87 12-60 12-33.14 0-60-5.37-60-12" stroke="#b2b2b2" stroke-width="2" fill="none"/><use xlink:href="#h" transform="matrix(1,0,0,1,-62004.33333333337,-1580.6666666666279) translate(16.525 46.6)"/><path d="M-61889.33-1501.67c0 6.63-26.87 12-60 12-33.14 0-60-5.37-60-12v-96c0-6.62 26.86-12 60-12 33.13 0 60 5.38 60 12z" stroke="#b2b2b2" stroke-width="2" fill="#e5e5e5"/><path d="M-61889.33-1597.67c0 6.63-26.87 12-60 12-33.14 0-60-5.37-60-12" stroke="#b2b2b2" stroke-width="2" fill="none"/><use xlink:href="#h" transform="matrix(1,0,0,1,-62004.33333333337,-1580.6666666666279) translate(16.525 46.6)"/><path d="M-124440-3684c0-1.66 1.34-3 3-3h143c1.66 0 3 1.34 3 3v247c0 1.66-1.34 3-3 3h-143c-1.66 0-3-1.34-3-3z" stroke="#b2b2b2" stroke-width="2" fill="#e5e5e5"/><path d="M-124421.26-3575.4c0 1.66 1.34 3 3 3h105.68c1.65 0 3-1.34 3-3v-30.4c0-1.65-1.35-3-3-3h-105.68c-1.66 0-3 1.35-3 3z" stroke="#b2b2b2" stroke-width="2" fill="#e5e5e5"/><use xlink:href="#i" transform="matrix(1,0,0,1,-124416.25885225885,-3603.7934472934476) translate(25.049999999999997 17.1)"/><path d="M-124421.18-3502.23c0 1.65 1.34 3 3 3h105.68c1.65 0 3-1.35 3-3v-30.4c0-1.66-1.35-3-3-3h-105.68c-1.66 0-3 1.34-3 3z" stroke="#b2b2b2" stroke-width="2" fill="#e5e5e5"/><use xlink:href="#j" transform="matrix(1,0,0,1,-124416.17887667888,-3530.632478632479) translate(17.599999999999994 17.1)"/><path d="M-124421.68-3539c0 1.66 1.35 3 3 3h105.68c1.66 0 3-1.34 3-3v-30.4c0-1.66-1.34-3-3-3h-105.68c-1.65 0-3 1.34-3 3z" stroke="#000" stroke-width="4" fill="#e5e5e5"/><use xlink:href="#k" transform="matrix(1,0,0,1,-124416.67521367522,-3567.4002849002845) translate(24.525 17.1)"/><path d="M-124419.8-3631.98c0 1.66 1.33 3 3 3h105.06c1.66 0 3-1.34 3-3v-30.4c0-1.65-1.34-3-3-3h-105.07c-1.67 0-3 1.35-3 3z" stroke="#b2b2b2" stroke-width="2" fill="#e5e5e5"/><use xlink:href="#l" transform="matrix(1,0,0,1,-124414.8137973138,-3660.3760683760684) translate(6.099999999999994 17.1)"/><path d="M-124421.18-3465.1c0 1.65 1.34 3 3 3h105.94c1.65 0 3-1.35 3-3v-30.77c0-1.66-1.35-3-3-3h-105.94c-1.66 0-3 1.34-3 3z" stroke="#b2b2b2" stroke-width="2" fill="#e5e5e5"/><use xlink:href="#m" transform="matrix(1,0,0,1,-124416.17887667887,-3493.871794871795) translate(0.5749999999999957 17.1)"/><path d="M-124565.27-3137.3c0 7.35-36.42 13.3-81.36 13.3s-81.37-5.95-81.37-13.3v-106.4c0-7.35 36.43-13.3 81.37-13.3 44.94 0 81.36 5.95 81.36 13.3z" stroke="#fcc438" stroke-width="2" fill="#e5e5e5"/><path d="M-124565.27-3243.7c0 7.35-36.42 13.3-81.36 13.3s-81.37-5.95-81.37-13.3" stroke="#fcc438" stroke-width="2" fill="none"/><path d="M-124727.18-3263.8c0 1.66 1.34 3 3 3h156.73c1.66 0 3-1.34 3-3v-47.2c0-1.66-1.34-3-3-3h-156.73c-1.66 0-3 1.34-3 3z" stroke="#fcc438" stroke-width="2" fill="#e5e5e5"/><use xlink:href="#n" transform="matrix(1,0,0,1,-124722.18358676208,-3309) translate(42.55 14.799999999999999)"/><use xlink:href="#o" transform="matrix(1,0,0,1,-124722.18358676208,-3309) translate(27.999999999999993 36.4)"/><path d="M-124710-3175c0 1.66 1.34 3 3 3h113.72c1.66 0 3-1.34 3-3v-27.67c0-1.65-1.34-3-3-3h-113.72c-1.66 0-3 1.35-3 3z" stroke="#fcc438" stroke-width="2" fill="#e5e5e5"/><use xlink:href="#p" transform="matrix(1,0,0,1,-124705,-3200.666666666667) translate(13.049999999999997 15.6)"/><path d="M-125056-3641.8c0-1.66 1.34-3 3-3h274c1.66 0 3 1.34 3 3v289c0 1.66-1.34 3-3 3h-274c-1.66 0-3-1.34-3-3z" stroke="#b2b2b2" stroke-width="2" fill="#e5e5e5"/><path d="M-125015.84-3591.54c0 1.65 1.34 3 3 3h194.16c1.66 0 3-1.35 3-3v-27.97c0-1.66-1.34-3-3-3h-194.16c-1.66 0-3 1.34-3 3z" stroke="#b2b2b2" stroke-width="2" fill="#e5e5e5"/><use xlink:href="#q" transform="matrix(1,0,0,1,-125010.83824686942,-3617.507943594105) translate(40.125 15.6)"/><use xlink:href="#r" transform="matrix(1,0,0,1,-125010.83824686942,-3617.507943594105) translate(102.025 15.6)"/><path d="M-125016-3548.54c0 1.65 1.34 3 3 3h194.53c1.65 0 3-1.35 3-3v-23.66c0-1.66-1.35-3-3-3h-194.53c-1.66 0-3 1.34-3 3z" stroke="#b2b2b2" stroke-width="2" fill="#e5e5e5"/><use xlink:href="#s" transform="matrix(1,0,0,1,-125011,-3570.204655612243) translate(53.525 14.4)"/><path d="M-125020-3425.5c0 1.65 1.34 3 3 3h197c1.66 0 3-1.35 3-3v-18.04c0-1.66-1.34-3-3-3h-197c-1.66 0-3 1.34-3 3z" stroke="#b2b2b2" stroke-width="2" fill="#e5e5e5"/><use xlink:href="#t" transform="matrix(1,0,0,1,-125015,-3441.5430909863926) translate(72.025 14.4)"/><path d="M-125020-3449.13c0 1.66 1.34 3 3 3h197c1.66 0 3-1.34 3-3v-33.96c0-1.65-1.34-3-3-3h-197c-1.66 0-3 1.35-3 3z" stroke="#b2b2b2" stroke-width="2" fill="#e5e5e5"/><use xlink:href="#u" transform="matrix(1,0,0,1,-125015,-3481.092056405895) translate(71.6 18.6)"/><path d="M-125020.62-3372.1c0 1.66 1.34 3 3 3h197.62c1.66 0 3-1.34 3-3v-21.44c0-1.66-1.34-3-3-3h-197.62c-1.66 0-3 1.34-3 3z" stroke="#b2b2b2" stroke-width="2" fill="#e5e5e5"/><use xlink:href="#v" transform="matrix(1,0,0,1,-125015.62456171736,-3391.5430909863926) translate(86.05 14.4)"/><path d="M-125020.25-3399.54c0 1.65 1.34 3 3 3h197.25c1.66 0 3-1.35 3-3v-20c0-1.66-1.34-3-3-3h-197.25c-1.66 0-3 1.34-3 3z" stroke="#b2b2b2" stroke-width="2" fill="#e5e5e5"/><use xlink:href="#w" transform="matrix(1,0,0,1,-125015.24912343471,-3417.543090986395) translate(72.525 14.4)"/><path d="M-125016.53-3505.54c0 1.65 1.35 3 3 3h194.53c1.66 0 3-1.35 3-3v-23.66c0-1.66-1.34-3-3-3h-194.53c-1.65 0-3 1.34-3 3z" stroke="#b2b2b2" stroke-width="2" fill="#e5e5e5"/><use xlink:href="#x" transform="matrix(1,0,0,1,-125011.52520572451,-3527.204655612244) translate(36.12499999999999 14.4)"/><use xlink:href="#y" transform="matrix(1,0,0,1,-125011.52520572451,-3527.204655612244) translate(63.12499999999999 14.4)"/><path d="M-124983.68-3681.2c0-1.66 1.35-3 3-3h116.65c1.66 0 3 1.34 3 3v8.4c0 1.66-1.34 3-3 3h-116.65c-1.65 0-3-1.34-3-3z" fill="none"/><use xlink:href="#z" transform="matrix(1,0,0,1,-124983.675,-3684.2) translate(0.17499999999999005 14.4)"/><path d="M-124557.35-3620.6c0 11.05-26.86 20-60 20s-60-8.95-60-20 26.86-20 60-20 60 8.95 60 20z" stroke="#b2b2b2" stroke-width="2" fill="#e5e5e5"/><use xlink:href="#A" transform="matrix(1,0,0,1,-124672.35,-3635.6) translate(30.575 18.6)"/><path d="M-124560-3558c0 11.05-26.86 20-60 20s-60-8.95-60-20 26.86-20 60-20 60 8.95 60 20z" stroke="#000" stroke-width="4" fill="#e5e5e5"/><use xlink:href="#B" transform="matrix(1,0,0,1,-124675,-3573) translate(38.525 18.6)"/><path d="M-124557.35-3500.6c0 11.05-26.86 20-60 20s-60-8.95-60-20 26.86-20 60-20 60 8.95 60 20z" stroke="#b2b2b2" stroke-width="2" fill="#e5e5e5"/><use xlink:href="#C" transform="matrix(1,0,0,1,-124672.35,-3515.6) translate(37.525 18.6)"/><path d="M-124557.35-3440.6c0 11.05-26.86 20-60 20s-60-8.95-60-20 26.86-20 60-20 60 8.95 60 20z" stroke="#b2b2b2" stroke-width="2" fill="#e5e5e5"/><use xlink:href="#D" transform="matrix(1,0,0,1,-124672.35,-3455.6) translate(13.549999999999997 18.6)"/><path d="M-124680-3677c0-1.66 1.34-3 3-3h116.65c1.66 0 3 1.34 3 3v8.4c0 1.66-1.34 3-3 3h-116.65c-1.66 0-3-1.34-3-3z" fill="none"/><use xlink:href="#E" transform="matrix(1,0,0,1,-124680,-3680) translate(17.599999999999994 14.4)"/><path d="M-61736.5-1408h100" stroke="#303030" stroke-width="2" fill="none"/><path d="M-61636.5-1408l-14.27 4.64v-9.28z" stroke="#303030" stroke-width="2" fill="#303030"/><path d="M-62110.33-1503.67h100" stroke="#303030" stroke-width="2" fill="none"/><path d="M-62010.33-1503.67l-14.27 4.64v-9.27z" stroke="#303030" stroke-width="2" fill="#303030"/><path d="M-62110.33-1503.67h100" stroke="#303030" stroke-width="2" fill="none"/><path d="M-62010.33-1503.67l-14.27 4.64v-9.27z" stroke="#303030" stroke-width="2" fill="#303030"/><path d="M-62110.33-1503.67h100" stroke="#303030" stroke-width="2" fill="none"/><path d="M-62010.33-1503.67l-14.27 4.64v-9.27z" stroke="#303030" stroke-width="2" fill="#303030"/><path d="M-125152-3510.33h64.74c1.65 0 3-1.35 3-3v-1.04c0-1.66 1.34-3 3-3h64.73M-125152-3510.33h-3" stroke="#ef8d22" stroke-width="2" fill="none"/><path d="M-125016.53-3517.37l-14.26 4.63v-9.27z" fill="#ef8d22"/><path d="M-125016.53-3518.43v2.1l-15.26 4.97v-12.03zm-13.26 4.32l10.04-3.27-10.03-3.26z" fill="#ef8d22"/><path d="M-62110.33-1560h100" stroke="#303030" stroke-width="2" fill="none"/><path d="M-62010.33-1560l-14.27 4.64v-9.28z" stroke="#303030" stroke-width="2" fill="#303030"/><path d="M-125157.33-3482.33h65.66c1.66 0 3 1.34 3 3v10.22c0 1.65 1.35 3 3 3h65.67M-125157.33-3482.33h-3" stroke="#ef8d22" stroke-width="2" fill="none"/><path d="M-125020-3466.1l-14.27 4.63v-9.27z" fill="#ef8d22"/><path d="M-125020-3467.16v2.1l-15.27 4.96v-12.02zm-13.27 4.3l10.03-3.25-10.03-3.27z" fill="#ef8d22"/><path d="M-125156-3529h67c1.66 0 3-1.34 3-3v-25.37c0-1.66 1.34-3 3-3h67M-125156-3529h-3" stroke="#ef8d22" stroke-width="2" fill="none"/><path d="M-125016-3560.37l-14.27 4.63v-9.27z" fill="#ef8d22"/><path d="M-125016-3561.43v2.1l-15.27 4.97v-12.03zm-13.27 4.32l10.03-3.27-10.03-3.26z" fill="#ef8d22"/><path d="M-62025.67-1548.67h100" stroke="#303030" stroke-width="2" fill="none"/><path d="M-61925.67-1548.67l-14.26 4.64v-9.27z" stroke="#303030" stroke-width="2" fill="#303030"/><path d="M-62025.67-1548.67h100" stroke="#303030" stroke-width="2" fill="none"/><path d="M-61925.67-1548.67l-14.26 4.64v-9.27z" stroke="#303030" stroke-width="2" fill="#303030"/><path d="M-62021.67-1548h100" stroke="#303030" stroke-width="2" fill="none"/><path d="M-61921.67-1548l-14.26 4.64v-9.28z" stroke="#303030" stroke-width="2" fill="#303030"/><path d="M-124274.53-3103.4c0 11.82-36.43 21.4-81.37 21.4-44.94 0-81.37-9.58-81.37-21.4v-171.2c0-11.82 36.43-21.4 81.37-21.4 44.94 0 81.37 9.58 81.37 21.4z" stroke="#b2b2b2" stroke-width="2" fill="#e5e5e5"/><path d="M-124274.53-3274.6c0 11.82-36.43 21.4-81.37 21.4-44.94 0-81.37-9.58-81.37-21.4" stroke="#b2b2b2" stroke-width="2" fill="none"/><path d="M-124440-3310.8c0 1.66 1.34 3 3 3h156.73c1.66 0 3-1.34 3-3v-47.2c0-1.66-1.34-3-3-3h-156.73c-1.66 0-3 1.34-3 3z" stroke="#b2b2b2" stroke-width="2" fill="#e5e5e5"/><use xlink:href="#F" transform="matrix(1,0,0,1,-124435,-3356) translate(47.125 14.799999999999999)"/><use xlink:href="#o" transform="matrix(1,0,0,1,-124435,-3356) translate(27.999999999999993 36.4)"/><path d="M-124415.72-3210.33c0 1.65 1.34 3 3 3h113.72c1.66 0 3-1.35 3-3V-3238c0-1.66-1.34-3-3-3h-113.72c-1.66 0-3 1.34-3 3z" stroke="#b2b2b2" stroke-width="2" fill="#e5e5e5"/><use xlink:href="#G" transform="matrix(1,0,0,1,-124410.71988306646,-3236) translate(33.025 15.6)"/><path d="M-124416-3178.33c0 1.65 1.34 3 3 3h113.62c1.65 0 3-1.35 3-3V-3204c0-1.66-1.35-3-3-3h-113.62c-1.66 0-3 1.34-3 3z" stroke="#b2b2b2" stroke-width="2" fill="#e5e5e5"/><use xlink:href="#H" transform="matrix(1,0,0,1,-124410.99999999997,-3202) translate(26.075 14.6)"/><path d="M-124415.86-3110.33c0 1.65 1.34 3 3 3h113.72c1.66 0 3-1.35 3-3V-3138c0-1.66-1.34-3-3-3h-113.72c-1.66 0-3 1.34-3 3z" stroke="#b2b2b2" stroke-width="2" fill="#e5e5e5"/><use xlink:href="#I" transform="matrix(1,0,0,1,-124410.85994153323,-3136) translate(13.549999999999997 15.6)"/><path d="M-124416-3144.33c0 1.65 1.34 3 3 3h113.72c1.66 0 3-1.35 3-3V-3172c0-1.66-1.34-3-3-3h-113.72c-1.66 0-3 1.34-3 3z" stroke="#000" stroke-width="4" fill="#e5e5e5"/><use xlink:href="#J" transform="matrix(1,0,0,1,-124411,-3170) translate(33.525 15.6)"/><path d="M-61985-1542h100" stroke="#303030" stroke-width="2" fill="none"/><path d="M-61885-1542l-14.27 4.64v-9.28z" stroke="#303030" stroke-width="2" fill="#303030"/><path d="M-125394.06-3510.77h46.56c.12 0 .22.1.22.22s.1.22.22.22h46.56M-125394.06-3510.77h-3" stroke="#ef8d22" stroke-width="2" fill="none"/><path d="M-125300.5-3510.33l-14.27 4.63v-9.27z" fill="#ef8d22"/><path d="M-125300-3511.22v1.78l-15.77 5.12v-12.03zm-13.77 4.15l10.03-3.26-10.03-3.26z" fill="#ef8d22"/><path d="M-62045.33-1501.67h100" stroke="#303030" stroke-width="2" fill="none"/><path d="M-61945.33-1501.67l-14.27 4.64v-9.27z" stroke="#303030" stroke-width="2" fill="#303030"/><path d="M-62045.33-1501.67h100" stroke="#303030" stroke-width="2" fill="none"/><path d="M-61945.33-1501.67l-14.27 4.64v-9.27z" stroke="#303030" stroke-width="2" fill="#303030"/><path d="M-124229-3160.97l-1.1 2.7-2.7 1.1h-63.48v-2h63.08l1.56-.64.64-1.57V-3446h2zm-1.1-392.92l1.1 2.7v83.6h-2v-83.2l-.64-1.56-1.56-.65h-76.3v-2h76.7zM-124309.5-3553h-.5v-2h.5z" fill="#ef8d22"/><path d="M-124282-3153.53l-14.28-4.64 14.27-4.63z" fill="#ef8d22"/><path d="M-124281-3152.15l-15.28-4.97v-2.1l15.27-4.96zm-12.04-6.02l10.03 3.26v-6.53z" fill="#ef8d22"/><use xlink:href="#K" transform="matrix(1,0,0,1,-124266.975,-3467.605039402966) translate(0 14.4)"/><use xlink:href="#L" transform="matrix(1,0,0,1,-124266.975,-3467.605039402966) translate(35.95 14.4)"/><path d="M-124770.75-3193.7l.64 1.56 1.55.64h40.55v2h-40.95l-2.7-1.1-1.1-2.7v-80.28h2zm-1.1-324.2l1.1 2.7v220.02h-2v-219.62l-.64-1.56-1.55-.64h-40.55v-2h40.95zM-124815.5-3517h-.5v-2h.5z" fill="#fcc438"/><path d="M-124728-3190.5l-14.27 4.64v-9.28z" fill="#fcc438"/><path d="M-124728-3191.55v2.1l-15.27 4.96v-12zm-13.27 4.3l10.03-3.25-10.03-3.26z" fill="#fcc438"/><use xlink:href="#K" transform="matrix(1,0,0,1,-124829.22499986226,-3295.178394037238) translate(0 14.4)"/><use xlink:href="#M" transform="matrix(1,0,0,1,-124829.22499986226,-3295.178394037238) translate(35.95 14.4)"/><use xlink:href="#N" transform="matrix(1,0,0,1,-124829.22499986226,-3295.178394037238) translate(75.95 14.4)"/><use xlink:href="#O" transform="matrix(1,0,0,1,-124829.22499986226,-3295.178394037238) translate(95.95 14.4)"/><path d="M-124501.9-3161.37l.65 1.56 1.56.63h83.7v2h-84.1l-2.68-1.1-1.1-2.7v-8.23h2zm-87.88-17.63v-2h32.6v2zM-124589.78-3179h-.5v-2h.5z" fill="#fcc438"/><path d="M-124416-3158.17l-14.27 4.64v-9.27z" fill="#fcc438"/><path d="M-124416-3159.22v2.1l-15.27 4.97v-12.03zm-13.27 4.3l10.03-3.25-10.03-3.26z" fill="#fcc438"/><use xlink:href="#P" transform="matrix(1,0,0,1,-124557.17989102259,-3190.8) translate(0 14.4)"/><path d="M-62029.4-1509.35c.77-1.46 2.74-2.65 4.4-2.65h109c8.84 0 16 26.86 16 60s-7.16 60-16 60h-109c-1.66 0-3.63-1.2-4.4-2.65l-29.2-54.7c-.77-1.46-.77-3.84 0-5.3z" stroke="#b2b2b2" stroke-width="2" fill="#e5e5e5"/><use xlink:href="#Q" transform="matrix(1,0,0,1,-62055,-1507) translate(45.574999999999996 58.6)"/><path d="M-125280.98-3308h-59.02v-2h59.02zm61.98-3.8l-1.1 2.7-2.7 1.1h-33.22v-2h32.82l1.56-.64.64-1.56V-3457h2z" fill="#0c7cba"/><path d="M-125325.73-3304.36l-14.27-4.64 14.27-4.64z" fill="#0c7cba"/><path d="M-125324.73-3303l-15.3-4.96.03-1.04-.04-1.04 15.3-4.97zm-12.03-6l10.03 3.26v-6.52z" fill="#0c7cba"/><use xlink:href="#R" transform="matrix(1,0,0,1,-125267,-3319.8) translate(0 14.4)"/><g><use xlink:href="#S" transform="matrix(1,0,0,1,-125280.975,-3319.8) translate(0 14.4)"/></g><path d="M-124469-3162.37l.64 1.56 1.56.63h49.8v2h-50.2l-2.7-1.1-1.1-2.7v-238.43h2zm-1.1-395.52l1.1 2.7v133.2h-2v-132.8l-.64-1.56-1.56-.64h-86.8v-2h87.2zM-124416-3158.17h-1v-2h1z" fill="#0c7cba"/><path d="M-124545.73-3553.36l-14.27-4.64 14.27-4.64z" fill="#0c7cba"/><path d="M-124544.73-3552l-15.35-4.97.06-.46.02-.57-.02-.48-.06-.55 15.35-4.98zm-12.03-6l10.03 3.26v-6.52z" fill="#0c7cba"/><g><use xlink:href="#S" transform="matrix(1,0,0,1,-124482.475,-3422.003148552619) translate(0 14.4)"/></g><path d="M-61788.5-1365.5h100" stroke="#303030" stroke-width="2" fill="none"/><path d="M-61688.5-1365.5l-14.27 4.64v-9.28z" stroke="#303030" stroke-width="2" fill="#303030"/><path d="M-124681.6-3560.6h-17c-1.66 0-3-1.34-3-3V-3717c0-1.66-1.35-3-3-3h-419.9c-1.66 0-3 1.34-3 3v165.5c0 1.66-1.34 3-3 3h-17" stroke="#0c7cba" stroke-width="2" fill="none"/><path d="M-124679.35-3560.94l-.25.62-.18.6-.03.12h-1.8v-2h2.57z" fill="#0c7cba"/><path d="M-125147.5-3548.5l14.27-4.64v9.28z" stroke="#0c7cba" stroke-width="2" fill="#0c7cba"/><defs><path fill="#ef8d22" d="M197 0v-115H63V0H30v-248h33v105h134v-105h34V0h-34" id="T"/><path fill="#ef8d22" d="M127-220V0H93v-220H8v-28h204v28h-85" id="U"/><path fill="#ef8d22" d="M30-248c87 1 191-15 191 75 0 78-77 80-158 76V0H30v-248zm33 125c57 0 124 11 124-50 0-59-68-47-124-48v98" id="V"/><g id="a"><use transform="matrix(0.05,0,0,0.05,0,0)" xlink:href="#T"/><use transform="matrix(0.05,0,0,0.05,12.950000000000001,0)" xlink:href="#U"/><use transform="matrix(0.05,0,0,0.05,23.900000000000002,0)" xlink:href="#U"/><use transform="matrix(0.05,0,0,0.05,34.85,0)" xlink:href="#V"/></g><path fill="#ef8d22" d="M140-251c81 0 123 46 123 126C263-46 219 4 140 4 59 4 17-45 17-125s42-126 123-126zm0 227c63 0 89-41 89-101s-29-99-89-99c-61 0-89 39-89 99S79-25 140-24" id="W"/><path fill="#ef8d22" d="M185-189c-5-48-123-54-124 2 14 75 158 14 163 119 3 78-121 87-175 55-17-10-28-26-33-46l33-7c5 56 141 63 141-1 0-78-155-14-162-118-5-82 145-84 179-34 5 7 8 16 11 25" id="X"/><g id="b"><use transform="matrix(0.05,0,0,0.05,0,0)" xlink:href="#V"/><use transform="matrix(0.05,0,0,0.05,12,0)" xlink:href="#W"/><use transform="matrix(0.05,0,0,0.05,26,0)" xlink:href="#X"/><use transform="matrix(0.05,0,0,0.05,38,0)" xlink:href="#U"/></g><path fill="#ef8d22" d="M114-163C36-179 61-72 57 0H25l-1-190h30c1 12-1 29 2 39 6-27 23-49 58-41v29" id="Y"/><path fill="#ef8d22" d="M100-194c63 0 86 42 84 106H49c0 40 14 67 53 68 26 1 43-12 49-29l28 8c-11 28-37 45-77 45C44 4 14-33 15-96c1-61 26-98 85-98zm52 81c6-60-76-77-97-28-3 7-6 17-6 28h103" id="Z"/><path fill="#ef8d22" d="M145-31C134-9 116 4 85 4 32 4 16-35 15-94c0-59 17-99 70-100 32-1 48 14 60 33 0-11-1-24 2-32h30l-1 268h-32zM93-21c41 0 51-33 51-76s-8-73-50-73c-40 0-46 35-46 75s5 74 45 74" id="aa"/><path fill="#ef8d22" d="M84 4C-5 8 30-112 23-190h32v120c0 31 7 50 39 49 72-2 45-101 50-169h31l1 190h-30c-1-10 1-25-2-33-11 22-28 36-60 37" id="ab"/><path fill="#ef8d22" d="M135-143c-3-34-86-38-87 0 15 53 115 12 119 90S17 21 10-45l28-5c4 36 97 45 98 0-10-56-113-15-118-90-4-57 82-63 122-42 12 7 21 19 24 35" id="ac"/><path fill="#ef8d22" d="M59-47c-2 24 18 29 38 22v24C64 9 27 4 27-40v-127H5v-23h24l9-43h21v43h35v23H59v120" id="ad"/><g id="c"><use transform="matrix(0.05,0,0,0.05,0,0)" xlink:href="#Y"/><use transform="matrix(0.05,0,0,0.05,5.95,0)" xlink:href="#Z"/><use transform="matrix(0.05,0,0,0.05,15.949999999999998,0)" xlink:href="#aa"/><use transform="matrix(0.05,0,0,0.05,25.950000000000003,0)" xlink:href="#ab"/><use transform="matrix(0.05,0,0,0.05,35.95,0)" xlink:href="#Z"/><use transform="matrix(0.05,0,0,0.05,45.95,0)" xlink:href="#ac"/><use transform="matrix(0.05,0,0,0.05,54.95,0)" xlink:href="#ad"/></g><path fill="#303030" d="M169-182c-1-43-94-46-97-3 18 66 151 10 154 114 3 95-165 93-204 36-6-8-10-19-12-30l50-8c3 46 112 56 116 5-17-69-150-10-154-114-4-87 153-88 188-35 5 8 8 18 10 28" id="ae"/><path fill="#303030" d="M24 0v-248h195v40H76v63h132v40H76v65h150V0H24" id="af"/><path fill="#303030" d="M240-174c0 40-23 61-54 70L253 0h-59l-57-94H76V0H24v-248c93 4 217-23 216 74zM76-134c48-2 112 12 112-38 0-48-66-32-112-35v73" id="ag"/><path fill="#303030" d="M147 0H94L2-248h55l64 206c17-72 42-137 63-206h54" id="ah"/><path fill="#303030" d="M35-132v-50h50v50H35zM35 0v-49h50V0H35" id="ai"/><g id="d"><use transform="matrix(0.05,0,0,0.05,0,0)" xlink:href="#ae"/><use transform="matrix(0.05,0,0,0.05,12,0)" xlink:href="#af"/><use transform="matrix(0.05,0,0,0.05,24,0)" xlink:href="#ag"/><use transform="matrix(0.05,0,0,0.05,36.6,0)" xlink:href="#ah"/><use transform="matrix(0.05,0,0,0.05,48.6,0)" xlink:href="#af"/><use transform="matrix(0.05,0,0,0.05,60.6,0)" xlink:href="#ag"/><use transform="matrix(0.05,0,0,0.05,73.55,0)" xlink:href="#ai"/></g><path fill="#303030" d="M190 0L58-211 59 0H30v-248h39L202-35l-2-213h31V0h-41" id="aj"/><path fill="#303030" d="M100-194c62-1 85 37 85 99 1 63-27 99-86 99S16-35 15-95c0-66 28-99 85-99zM99-20c44 1 53-31 53-75 0-43-8-75-51-75s-53 32-53 75 10 74 51 75" id="ak"/><path fill="#303030" d="M85-194c31 0 48 13 60 33l-1-100h32l1 261h-30c-2-10 0-23-3-31C134-8 116 4 85 4 32 4 16-35 15-94c0-66 23-100 70-100zm9 24c-40 0-46 34-46 75 0 40 6 74 45 74 42 0 51-32 51-76 0-42-9-74-50-73" id="al"/><path fill="#303030" d="M100-194c63 0 86 42 84 106H49c0 40 14 67 53 68 26 1 43-12 49-29l28 8c-11 28-37 45-77 45C44 4 14-33 15-96c1-61 26-98 85-98zm52 81c6-60-76-77-97-28-3 7-6 17-6 28h103" id="am"/><path fill="#303030" d="M33 0v-38h34V0H33" id="an"/><path fill="#303030" d="M24-231v-30h32v30H24zM-9 49c24 4 33-6 33-30v-209h32V24c2 40-23 58-65 49V49" id="ao"/><path fill="#303030" d="M135-143c-3-34-86-38-87 0 15 53 115 12 119 90S17 21 10-45l28-5c4 36 97 45 98 0-10-56-113-15-118-90-4-57 82-63 122-42 12 7 21 19 24 35" id="ap"/><g id="e"><use transform="matrix(0.05,0,0,0.05,0,0)" xlink:href="#aj"/><use transform="matrix(0.05,0,0,0.05,12.950000000000001,0)" xlink:href="#ak"/><use transform="matrix(0.05,0,0,0.05,22.950000000000003,0)" xlink:href="#al"/><use transform="matrix(0.05,0,0,0.05,32.95,0)" xlink:href="#am"/><use transform="matrix(0.05,0,0,0.05,42.95,0)" xlink:href="#an"/><use transform="matrix(0.05,0,0,0.05,47.95,0)" xlink:href="#ao"/><use transform="matrix(0.05,0,0,0.05,51.900000000000006,0)" xlink:href="#ap"/></g><path fill="#0c7cba" d="M30-248c87 1 191-15 191 75 0 78-77 80-158 76V0H30v-248zm33 125c57 0 124 11 124-50 0-59-68-47-124-48v98" id="aq"/><path fill="#0c7cba" d="M140-251c81 0 123 46 123 126C263-46 219 4 140 4 59 4 17-45 17-125s42-126 123-126zm0 227c63 0 89-41 89-101s-29-99-89-99c-61 0-89 39-89 99S79-25 140-24" id="ar"/><path fill="#0c7cba" d="M185-189c-5-48-123-54-124 2 14 75 158 14 163 119 3 78-121 87-175 55-17-10-28-26-33-46l33-7c5 56 141 63 141-1 0-78-155-14-162-118-5-82 145-84 179-34 5 7 8 16 11 25" id="as"/><path fill="#0c7cba" d="M127-220V0H93v-220H8v-28h204v28h-85" id="at"/><g id="f"><use transform="matrix(0.05,0,0,0.05,0,0)" xlink:href="#aq"/><use transform="matrix(0.05,0,0,0.05,12,0)" xlink:href="#ar"/><use transform="matrix(0.05,0,0,0.05,26,0)" xlink:href="#as"/><use transform="matrix(0.05,0,0,0.05,38,0)" xlink:href="#at"/></g><path fill="#0c7cba" d="M114-163C36-179 61-72 57 0H25l-1-190h30c1 12-1 29 2 39 6-27 23-49 58-41v29" id="au"/><path fill="#0c7cba" d="M100-194c63 0 86 42 84 106H49c0 40 14 67 53 68 26 1 43-12 49-29l28 8c-11 28-37 45-77 45C44 4 14-33 15-96c1-61 26-98 85-98zm52 81c6-60-76-77-97-28-3 7-6 17-6 28h103" id="av"/><path fill="#0c7cba" d="M135-143c-3-34-86-38-87 0 15 53 115 12 119 90S17 21 10-45l28-5c4 36 97 45 98 0-10-56-113-15-118-90-4-57 82-63 122-42 12 7 21 19 24 35" id="aw"/><path fill="#0c7cba" d="M115-194c55 1 70 41 70 98S169 2 115 4C84 4 66-9 55-30l1 105H24l-1-265h31l2 30c10-21 28-34 59-34zm-8 174c40 0 45-34 45-75s-6-73-45-74c-42 0-51 32-51 76 0 43 10 73 51 73" id="ax"/><path fill="#0c7cba" d="M100-194c62-1 85 37 85 99 1 63-27 99-86 99S16-35 15-95c0-66 28-99 85-99zM99-20c44 1 53-31 53-75 0-43-8-75-51-75s-53 32-53 75 10 74 51 75" id="ay"/><path fill="#0c7cba" d="M117-194c89-4 53 116 60 194h-32v-121c0-31-8-49-39-48C34-167 62-67 57 0H25l-1-190h30c1 10-1 24 2 32 11-22 29-35 61-36" id="az"/><path fill="#0c7cba" d="M96-169c-40 0-48 33-48 73s9 75 48 75c24 0 41-14 43-38l32 2c-6 37-31 61-74 61-59 0-76-41-82-99-10-93 101-131 147-64 4 7 5 14 7 22l-32 3c-4-21-16-35-41-35" id="aA"/><g id="g"><use transform="matrix(0.05,0,0,0.05,0,0)" xlink:href="#au"/><use transform="matrix(0.05,0,0,0.05,5.95,0)" xlink:href="#av"/><use transform="matrix(0.05,0,0,0.05,15.949999999999998,0)" xlink:href="#aw"/><use transform="matrix(0.05,0,0,0.05,24.95,0)" xlink:href="#ax"/><use transform="matrix(0.05,0,0,0.05,34.95,0)" xlink:href="#ay"/><use transform="matrix(0.05,0,0,0.05,44.95,0)" xlink:href="#az"/><use transform="matrix(0.05,0,0,0.05,54.95,0)" xlink:href="#aA"/><use transform="matrix(0.05,0,0,0.05,63.95,0)" xlink:href="#av"/></g><path fill="#303030" d="M30-248c118-7 216 8 213 122C240-48 200 0 122 0H30v-248zM63-27c89 8 146-16 146-99s-60-101-146-95v194" id="aB"/><path fill="#303030" d="M141-36C126-15 110 5 73 4 37 3 15-17 15-53c-1-64 63-63 125-63 3-35-9-54-41-54-24 1-41 7-42 31l-33-3c5-37 33-52 76-52 45 0 72 20 72 64v82c-1 20 7 32 28 27v20c-31 9-61-2-59-35zM48-53c0 20 12 33 32 33 41-3 63-29 60-74-43 2-92-5-92 41" id="aC"/><path fill="#303030" d="M59-47c-2 24 18 29 38 22v24C64 9 27 4 27-40v-127H5v-23h24l9-43h21v43h35v23H59v120" id="aD"/><path fill="#303030" d="M115-194c53 0 69 39 70 98 0 66-23 100-70 100C84 3 66-7 56-30L54 0H23l1-261h32v101c10-23 28-34 59-34zm-8 174c40 0 45-34 45-75 0-40-5-75-45-74-42 0-51 32-51 76 0 43 10 73 51 73" id="aE"/><g id="h"><use transform="matrix(0.05,0,0,0.05,0,0)" xlink:href="#aB"/><use transform="matrix(0.05,0,0,0.05,12.950000000000001,0)" xlink:href="#aC"/><use transform="matrix(0.05,0,0,0.05,22.950000000000003,0)" xlink:href="#aD"/><use transform="matrix(0.05,0,0,0.05,27.950000000000003,0)" xlink:href="#aC"/><use transform="matrix(0.05,0,0,0.05,37.95,0)" xlink:href="#aE"/><use transform="matrix(0.05,0,0,0.05,47.95,0)" xlink:href="#aC"/><use transform="matrix(0.05,0,0,0.05,57.95,0)" xlink:href="#ap"/><use transform="matrix(0.05,0,0,0.05,66.95,0)" xlink:href="#am"/></g><path fill="#303030" d="M84 4C-5 8 30-112 23-190h32v120c0 31 7 50 39 49 72-2 45-101 50-169h31l1 190h-30c-1-10 1-25-2-33-11 22-28 36-60 37" id="aF"/><path fill="#303030" d="M114-163C36-179 61-72 57 0H25l-1-190h30c1 12-1 29 2 39 6-27 23-49 58-41v29" id="aG"/><g id="i"><use transform="matrix(0.05,0,0,0.05,0,0)" xlink:href="#aF"/><use transform="matrix(0.05,0,0,0.05,10,0)" xlink:href="#ap"/><use transform="matrix(0.05,0,0,0.05,19,0)" xlink:href="#am"/><use transform="matrix(0.05,0,0,0.05,29,0)" xlink:href="#aG"/><use transform="matrix(0.05,0,0,0.05,33.95,0)" xlink:href="#an"/><use transform="matrix(0.05,0,0,0.05,38.95,0)" xlink:href="#ao"/><use transform="matrix(0.05,0,0,0.05,42.900000000000006,0)" xlink:href="#ap"/></g><path fill="#303030" d="M115-194c55 1 70 41 70 98S169 2 115 4C84 4 66-9 55-30l1 105H24l-1-265h31l2 30c10-21 28-34 59-34zm-8 174c40 0 45-34 45-75s-6-73-45-74c-42 0-51 32-51 76 0 43 10 73 51 73" id="aH"/><path fill="#303030" d="M101-234c-31-9-42 10-38 44h38v23H63V0H32v-167H5v-23h27c-7-52 17-82 69-68v24" id="aI"/><path fill="#303030" d="M24-231v-30h32v30H24zM24 0v-190h32V0H24" id="aJ"/><path fill="#303030" d="M24 0v-261h32V0H24" id="aK"/><g id="j"><use transform="matrix(0.05,0,0,0.05,0,0)" xlink:href="#aH"/><use transform="matrix(0.05,0,0,0.05,10,0)" xlink:href="#aG"/><use transform="matrix(0.05,0,0,0.05,15.949999999999998,0)" xlink:href="#ak"/><use transform="matrix(0.05,0,0,0.05,25.950000000000003,0)" xlink:href="#aI"/><use transform="matrix(0.05,0,0,0.05,30.950000000000003,0)" xlink:href="#aJ"/><use transform="matrix(0.05,0,0,0.05,34.9,0)" xlink:href="#aK"/><use transform="matrix(0.05,0,0,0.05,38.85,0)" xlink:href="#am"/><use transform="matrix(0.05,0,0,0.05,48.85,0)" xlink:href="#an"/><use transform="matrix(0.05,0,0,0.05,53.85,0)" xlink:href="#ao"/><use transform="matrix(0.05,0,0,0.05,57.800000000000004,0)" xlink:href="#ap"/></g><path fill="#303030" d="M115-3C79 11 28 4 28-45v-112H4v-33h27l15-45h31v45h36v33H77v99c-1 23 16 31 38 25v30" id="aL"/><path fill="#303030" d="M135-150c-39-12-60 13-60 57V0H25l-1-190h47c2 13-1 29 3 40 6-28 27-53 61-41v41" id="aM"/><path fill="#303030" d="M133-34C117-15 103 5 69 4 32 3 11-16 11-54c-1-60 55-63 116-61 1-26-3-47-28-47-18 1-26 9-28 27l-52-2c7-38 36-58 82-57s74 22 75 68l1 82c-1 14 12 18 25 15v27c-30 8-71 5-69-32zm-48 3c29 0 43-24 42-57-32 0-66-3-65 30 0 17 8 27 23 27" id="aN"/><path fill="#303030" d="M25-224v-37h50v37H25zM25 0v-190h50V0H25" id="aO"/><path fill="#303030" d="M25 0v-261h50V0H25" id="aP"/><path fill="#303030" d="M24 0v-54h51V0H24" id="aQ"/><path fill="#303030" d="M25-224v-37h50v37H25zM75 22c2 45-34 59-81 51V38c22 5 31-5 31-27v-201h50V22" id="aR"/><path fill="#303030" d="M137-138c1-29-70-34-71-4 15 46 118 7 119 86 1 83-164 76-172 9l43-7c4 19 20 25 44 25 33 8 57-30 24-41C81-84 22-81 20-136c-2-80 154-74 161-7" id="aS"/><g id="k"><use transform="matrix(0.05,0,0,0.05,0,0)" xlink:href="#aL"/><use transform="matrix(0.05,0,0,0.05,5.95,0)" xlink:href="#aM"/><use transform="matrix(0.05,0,0,0.05,12.949999999999998,0)" xlink:href="#aN"/><use transform="matrix(0.05,0,0,0.05,22.95,0)" xlink:href="#aO"/><use transform="matrix(0.05,0,0,0.05,27.950000000000003,0)" xlink:href="#aP"/><use transform="matrix(0.05,0,0,0.05,32.95,0)" xlink:href="#aQ"/><use transform="matrix(0.05,0,0,0.05,37.95,0)" xlink:href="#aR"/><use transform="matrix(0.05,0,0,0.05,42.95,0)" xlink:href="#aS"/></g><path fill="#303030" d="M67-125c0 53 21 87 73 88 37 1 54-22 65-47l45 17C233-25 199 4 140 4 58 4 20-42 15-125 8-235 124-281 211-232c18 10 29 29 36 50l-46 12c-8-25-30-41-62-41-52 0-71 34-72 86" id="aT"/><path fill="#303030" d="M186 0v-106H76V0H24v-248h52v99h110v-99h50V0h-50" id="aU"/><path fill="#303030" d="M230 0l2-204L168 0h-37L68-204 70 0H24v-248h70l56 185 57-185h69V0h-46" id="aV"/><path fill="#303030" d="M199 0l-22-63H83L61 0H9l90-248h61L250 0h-51zm-33-102l-36-108c-10 38-24 72-36 108h72" id="aW"/><g id="l"><use transform="matrix(0.05,0,0,0.05,0,0)" xlink:href="#ae"/><use transform="matrix(0.05,0,0,0.05,12,0)" xlink:href="#aT"/><use transform="matrix(0.05,0,0,0.05,24.950000000000003,0)" xlink:href="#aU"/><use transform="matrix(0.05,0,0,0.05,37.900000000000006,0)" xlink:href="#af"/><use transform="matrix(0.05,0,0,0.05,49.900000000000006,0)" xlink:href="#aV"/><use transform="matrix(0.05,0,0,0.05,64.85000000000001,0)" xlink:href="#aW"/><use transform="matrix(0.05,0,0,0.05,77.80000000000001,0)" xlink:href="#ae"/></g><path fill="#303030" d="M96-169c-40 0-48 33-48 73s9 75 48 75c24 0 41-14 43-38l32 2c-6 37-31 61-74 61-59 0-76-41-82-99-10-93 101-131 147-64 4 7 5 14 7 22l-32 3c-4-21-16-35-41-35" id="aX"/><path fill="#303030" d="M210-169c-67 3-38 105-44 169h-31v-121c0-29-5-50-35-48C34-165 62-65 56 0H25l-1-190h30c1 10-1 24 2 32 10-44 99-50 107 0 11-21 27-35 58-36 85-2 47 119 55 194h-31v-121c0-29-5-49-35-48" id="aY"/><path fill="#303030" d="M117-194c89-4 53 116 60 194h-32v-121c0-31-8-49-39-48C34-167 62-67 57 0H25l-1-190h30c1 10-1 24 2 32 11-22 29-35 61-36" id="aZ"/><g id="m"><use transform="matrix(0.05,0,0,0.05,0,0)" xlink:href="#aX"/><use transform="matrix(0.05,0,0,0.05,9,0)" xlink:href="#ak"/><use transform="matrix(0.05,0,0,0.05,19,0)" xlink:href="#aY"/><use transform="matrix(0.05,0,0,0.05,33.95,0)" xlink:href="#aY"/><use transform="matrix(0.05,0,0,0.05,48.900000000000006,0)" xlink:href="#am"/><use transform="matrix(0.05,0,0,0.05,58.900000000000006,0)" xlink:href="#aZ"/><use transform="matrix(0.05,0,0,0.05,68.9,0)" xlink:href="#aD"/><use transform="matrix(0.05,0,0,0.05,73.9,0)" xlink:href="#ap"/><use transform="matrix(0.05,0,0,0.05,82.9,0)" xlink:href="#an"/><use transform="matrix(0.05,0,0,0.05,87.9,0)" xlink:href="#ao"/><use transform="matrix(0.05,0,0,0.05,91.85000000000001,0)" xlink:href="#ap"/></g><path fill="#303030" d="M128-127c34 4 56 21 59 58 7 91-148 94-172 28-4-9-6-17-7-26l51-5c1 24 16 35 40 36 23 0 39-12 38-36-1-31-31-36-65-34v-40c32 2 59-3 59-33 0-20-13-33-34-33s-33 13-35 32l-50-3c6-44 37-68 86-68 50 0 83 20 83 66 0 35-22 52-53 58" id="ba"/><path fill="#303030" d="M4 7l51-268h42L46 7H4" id="bb"/><path fill="#303030" d="M275 0h-61l-44-196L126 0H64L0-248h53L97-49l45-199h58l43 199 44-199h52" id="bc"/><g id="n"><use transform="matrix(0.05,0,0,0.05,0,0)" xlink:href="#ae"/><use transform="matrix(0.05,0,0,0.05,12,0)" xlink:href="#ba"/><use transform="matrix(0.05,0,0,0.05,22,0)" xlink:href="#bb"/><use transform="matrix(0.05,0,0,0.05,27,0)" xlink:href="#aW"/><use transform="matrix(0.05,0,0,0.05,38.95,0)" xlink:href="#bc"/><use transform="matrix(0.05,0,0,0.05,55.900000000000006,0)" xlink:href="#ae"/></g><path fill="#303030" d="M24-248c120-7 223 5 221 122C244-46 201 0 124 0H24v-248zM76-40c74 7 117-18 117-86 0-67-45-88-117-82v168" id="bd"/><path fill="#303030" d="M136-208V0H84v-208H4v-40h212v40h-80" id="be"/><path fill="#303030" d="M182-130c37 4 62 22 62 59C244 23 116-4 24 0v-248c84 5 203-23 205 63 0 31-19 50-47 55zM76-148c40-3 101 13 101-30 0-44-60-28-101-31v61zm0 110c48-3 116 14 116-37 0-48-69-32-116-35v72" id="bf"/><g id="o"><use transform="matrix(0.05,0,0,0.05,0,0)" xlink:href="#bd"/><use transform="matrix(0.05,0,0,0.05,12.950000000000001,0)" xlink:href="#aW"/><use transform="matrix(0.05,0,0,0.05,24.550000000000004,0)" xlink:href="#be"/><use transform="matrix(0.05,0,0,0.05,34.150000000000006,0)" xlink:href="#aW"/><use transform="matrix(0.05,0,0,0.05,47.10000000000001,0)" xlink:href="#bf"/><use transform="matrix(0.05,0,0,0.05,60.05000000000001,0)" xlink:href="#aW"/><use transform="matrix(0.05,0,0,0.05,73.00000000000001,0)" xlink:href="#ae"/><use transform="matrix(0.05,0,0,0.05,85.00000000000001,0)" xlink:href="#af"/></g><path fill="#ef8d22" d="M24-231v-30h32v30H24zM24 0v-190h32V0H24" id="bg"/><path fill="#ef8d22" d="M210-169c-67 3-38 105-44 169h-31v-121c0-29-5-50-35-48C34-165 62-65 56 0H25l-1-190h30c1 10-1 24 2 32 10-44 99-50 107 0 11-21 27-35 58-36 85-2 47 119 55 194h-31v-121c0-29-5-49-35-48" id="bh"/><path fill="#ef8d22" d="M141-36C126-15 110 5 73 4 37 3 15-17 15-53c-1-64 63-63 125-63 3-35-9-54-41-54-24 1-41 7-42 31l-33-3c5-37 33-52 76-52 45 0 72 20 72 64v82c-1 20 7 32 28 27v20c-31 9-61-2-59-35zM48-53c0 20 12 33 32 33 41-3 63-29 60-74-43 2-92-5-92 41" id="bi"/><path fill="#ef8d22" d="M177-190C167-65 218 103 67 71c-23-6-38-20-44-43l32-5c15 47 100 32 89-28v-30C133-14 115 1 83 1 29 1 15-40 15-95c0-56 16-97 71-98 29-1 48 16 59 35 1-10 0-23 2-32h30zM94-22c36 0 50-32 50-73 0-42-14-75-50-75-39 0-46 34-46 75s6 73 46 73" id="bj"/><path fill="#ef8d22" d="M33 0v-38h34V0H33" id="bk"/><path fill="#ef8d22" d="M115-194c55 1 70 41 70 98S169 2 115 4C84 4 66-9 55-30l1 105H24l-1-265h31l2 30c10-21 28-34 59-34zm-8 174c40 0 45-34 45-75s-6-73-45-74c-42 0-51 32-51 76 0 43 10 73 51 73" id="bl"/><path fill="#ef8d22" d="M117-194c89-4 53 116 60 194h-32v-121c0-31-8-49-39-48C34-167 62-67 57 0H25l-1-190h30c1 10-1 24 2 32 11-22 29-35 61-36" id="bm"/><g id="p"><use transform="matrix(0.05,0,0,0.05,0,0)" xlink:href="#bg"/><use transform="matrix(0.05,0,0,0.05,3.95,0)" xlink:href="#bh"/><use transform="matrix(0.05,0,0,0.05,18.900000000000002,0)" xlink:href="#bi"/><use transform="matrix(0.05,0,0,0.05,28.900000000000002,0)" xlink:href="#bj"/><use transform="matrix(0.05,0,0,0.05,38.900000000000006,0)" xlink:href="#Z"/><use transform="matrix(0.05,0,0,0.05,48.900000000000006,0)" xlink:href="#bk"/><use transform="matrix(0.05,0,0,0.05,53.900000000000006,0)" xlink:href="#bl"/><use transform="matrix(0.05,0,0,0.05,63.900000000000006,0)" xlink:href="#bm"/><use transform="matrix(0.05,0,0,0.05,73.9,0)" xlink:href="#bj"/></g><path fill="#303030" d="M197 0v-115H63V0H30v-248h33v105h134v-105h34V0h-34" id="bn"/><g id="q"><use transform="matrix(0.05,0,0,0.05,0,0)" xlink:href="#bn"/><use transform="matrix(0.05,0,0,0.05,12.950000000000001,0)" xlink:href="#aC"/><use transform="matrix(0.05,0,0,0.05,22.950000000000003,0)" xlink:href="#aZ"/><use transform="matrix(0.05,0,0,0.05,32.95,0)" xlink:href="#al"/><use transform="matrix(0.05,0,0,0.05,42.95,0)" xlink:href="#aK"/><use transform="matrix(0.05,0,0,0.05,46.900000000000006,0)" xlink:href="#am"/></g><path fill="#303030" d="M30 0v-248h187v28H63v79h144v27H63v87h162V0H30" id="bo"/><g id="r"><use transform="matrix(0.05,0,0,0.05,0,0)" xlink:href="#bo"/><use transform="matrix(0.05,0,0,0.05,12,0)" xlink:href="#aG"/><use transform="matrix(0.05,0,0,0.05,17.95,0)" xlink:href="#aG"/><use transform="matrix(0.05,0,0,0.05,23.9,0)" xlink:href="#ak"/><use transform="matrix(0.05,0,0,0.05,33.9,0)" xlink:href="#aG"/><use transform="matrix(0.05,0,0,0.05,39.85,0)" xlink:href="#ap"/></g><path fill="#303030" d="M240 0l2-218c-23 76-54 145-80 218h-23L58-218 59 0H30v-248h44l77 211c21-75 51-140 76-211h43V0h-30" id="bp"/><path fill="#303030" d="M177-190C167-65 218 103 67 71c-23-6-38-20-44-43l32-5c15 47 100 32 89-28v-30C133-14 115 1 83 1 29 1 15-40 15-95c0-56 16-97 71-98 29-1 48 16 59 35 1-10 0-23 2-32h30zM94-22c36 0 50-32 50-73 0-42-14-75-50-75-39 0-46 34-46 75s6 73 46 73" id="bq"/><g id="s"><use transform="matrix(0.05,0,0,0.05,0,0)" xlink:href="#bp"/><use transform="matrix(0.05,0,0,0.05,14.950000000000001,0)" xlink:href="#ak"/><use transform="matrix(0.05,0,0,0.05,24.950000000000003,0)" xlink:href="#aZ"/><use transform="matrix(0.05,0,0,0.05,34.95,0)" xlink:href="#bq"/><use transform="matrix(0.05,0,0,0.05,44.95,0)" xlink:href="#ak"/><use transform="matrix(0.05,0,0,0.05,54.95,0)" xlink:href="#ak"/><use transform="matrix(0.05,0,0,0.05,64.95,0)" xlink:href="#ap"/><use transform="matrix(0.05,0,0,0.05,73.95,0)" xlink:href="#am"/></g><path fill="#303030" d="M179-190L93 31C79 59 56 82 12 73V49c39 6 53-20 64-50L1-190h34L92-34l54-156h33" id="br"/><g id="t"><use transform="matrix(0.05,0,0,0.05,0,0)" xlink:href="#aE"/><use transform="matrix(0.05,0,0,0.05,10,0)" xlink:href="#aX"/><use transform="matrix(0.05,0,0,0.05,19,0)" xlink:href="#aG"/><use transform="matrix(0.05,0,0,0.05,24.95,0)" xlink:href="#br"/><use transform="matrix(0.05,0,0,0.05,33.95,0)" xlink:href="#aH"/><use transform="matrix(0.05,0,0,0.05,43.95,0)" xlink:href="#aD"/></g><path fill="#303030" d="M238-95c0 69-44 99-111 99C63 4 22-25 22-93v-155h51v151c-1 38 19 59 55 60 90 1 49-130 58-211h52v153" id="bs"/><g id="u"><use transform="matrix(0.05,0,0,0.05,0,0)" xlink:href="#aW"/><use transform="matrix(0.05,0,0,0.05,12.950000000000001,0)" xlink:href="#bs"/><use transform="matrix(0.05,0,0,0.05,25.900000000000002,0)" xlink:href="#be"/><use transform="matrix(0.05,0,0,0.05,36.85,0)" xlink:href="#aU"/></g><path fill="#303030" d="M206 0h-36l-40-164L89 0H53L-1-190h32L70-26l43-164h34l41 164 42-164h31" id="bt"/><g id="v"><use transform="matrix(0.05,0,0,0.05,0,0)" xlink:href="#ao"/><use transform="matrix(0.05,0,0,0.05,3.95,0)" xlink:href="#bt"/><use transform="matrix(0.05,0,0,0.05,16.900000000000002,0)" xlink:href="#aD"/></g><g id="w"><use transform="matrix(0.05,0,0,0.05,0,0)" xlink:href="#aX"/><use transform="matrix(0.05,0,0,0.05,9,0)" xlink:href="#aG"/><use transform="matrix(0.05,0,0,0.05,14.949999999999998,0)" xlink:href="#br"/><use transform="matrix(0.05,0,0,0.05,23.95,0)" xlink:href="#aH"/><use transform="matrix(0.05,0,0,0.05,33.95,0)" xlink:href="#aD"/><use transform="matrix(0.05,0,0,0.05,38.95,0)" xlink:href="#ak"/></g><path fill="#f47609" d="M185-189c-5-48-123-54-124 2 14 75 158 14 163 119 3 78-121 87-175 55-17-10-28-26-33-46l33-7c5 56 141 63 141-1 0-78-155-14-162-118-5-82 145-84 179-34 5 7 8 16 11 25" id="bu"/><path fill="#f47609" d="M126-127c33 6 58 20 58 59 0 88-139 92-164 29-3-8-5-16-6-25l32-3c6 27 21 44 54 44 32 0 52-15 52-46 0-38-36-46-79-43v-28c39 1 72-4 72-42 0-27-17-43-46-43-28 0-47 15-49 41l-32-3c6-42 35-63 81-64 48-1 79 21 79 65 0 36-21 52-52 59" id="bv"/><g id="x"><use transform="matrix(0.05,0,0,0.05,0,0)" xlink:href="#bu"/><use transform="matrix(0.05,0,0,0.05,12,0)" xlink:href="#bv"/></g><path fill="#f47609" d="M240 0l2-218c-23 76-54 145-80 218h-23L58-218 59 0H30v-248h44l77 211c21-75 51-140 76-211h43V0h-30" id="bw"/><path fill="#f47609" d="M24-231v-30h32v30H24zM24 0v-190h32V0H24" id="bx"/><path fill="#f47609" d="M85-194c31 0 48 13 60 33l-1-100h32l1 261h-30c-2-10 0-23-3-31C134-8 116 4 85 4 32 4 16-35 15-94c0-66 23-100 70-100zm9 24c-40 0-46 34-46 75 0 40 6 74 45 74 42 0 51-32 51-76 0-42-9-74-50-73" id="by"/><path fill="#f47609" d="M24 0v-261h32V0H24" id="bz"/><path fill="#f47609" d="M100-194c63 0 86 42 84 106H49c0 40 14 67 53 68 26 1 43-12 49-29l28 8c-11 28-37 45-77 45C44 4 14-33 15-96c1-61 26-98 85-98zm52 81c6-60-76-77-97-28-3 7-6 17-6 28h103" id="bA"/><path fill="#f47609" d="M206 0h-36l-40-164L89 0H53L-1-190h32L70-26l43-164h34l41 164 42-164h31" id="bB"/><path fill="#f47609" d="M141-36C126-15 110 5 73 4 37 3 15-17 15-53c-1-64 63-63 125-63 3-35-9-54-41-54-24 1-41 7-42 31l-33-3c5-37 33-52 76-52 45 0 72 20 72 64v82c-1 20 7 32 28 27v20c-31 9-61-2-59-35zM48-53c0 20 12 33 32 33 41-3 63-29 60-74-43 2-92-5-92 41" id="bC"/><path fill="#f47609" d="M114-163C36-179 61-72 57 0H25l-1-190h30c1 12-1 29 2 39 6-27 23-49 58-41v29" id="bD"/><g id="y"><use transform="matrix(0.05,0,0,0.05,0,0)" xlink:href="#bw"/><use transform="matrix(0.05,0,0,0.05,14.950000000000001,0)" xlink:href="#bx"/><use transform="matrix(0.05,0,0,0.05,18.900000000000002,0)" xlink:href="#by"/><use transform="matrix(0.05,0,0,0.05,28.900000000000002,0)" xlink:href="#by"/><use transform="matrix(0.05,0,0,0.05,38.900000000000006,0)" xlink:href="#bz"/><use transform="matrix(0.05,0,0,0.05,42.85000000000001,0)" xlink:href="#bA"/><use transform="matrix(0.05,0,0,0.05,52.85,0)" xlink:href="#bB"/><use transform="matrix(0.05,0,0,0.05,65.80000000000001,0)" xlink:href="#bC"/><use transform="matrix(0.05,0,0,0.05,75.80000000000001,0)" xlink:href="#bD"/><use transform="matrix(0.05,0,0,0.05,81.75000000000001,0)" xlink:href="#bA"/></g><path fill="#303030" d="M24 0v-248h52V0H24" id="bE"/><path fill="#303030" d="M24 0v-248h52v208h133V0H24" id="bF"/><g id="z"><use transform="matrix(0.05,0,0,0.05,0,0)" xlink:href="#aV"/><use transform="matrix(0.05,0,0,0.05,14.950000000000001,0)" xlink:href="#bE"/><use transform="matrix(0.05,0,0,0.05,19.950000000000003,0)" xlink:href="#bd"/><use transform="matrix(0.05,0,0,0.05,32.900000000000006,0)" xlink:href="#bd"/><use transform="matrix(0.05,0,0,0.05,45.85000000000001,0)" xlink:href="#bF"/><use transform="matrix(0.05,0,0,0.05,56.80000000000001,0)" xlink:href="#af"/><use transform="matrix(0.05,0,0,0.05,68.80000000000001,0)" xlink:href="#bc"/><use transform="matrix(0.05,0,0,0.05,84.75000000000001,0)" xlink:href="#aW"/><use transform="matrix(0.05,0,0,0.05,97.70000000000002,0)" xlink:href="#ag"/><use transform="matrix(0.05,0,0,0.05,110.65000000000003,0)" xlink:href="#af"/></g><g id="A"><use transform="matrix(0.05,0,0,0.05,0,0)" xlink:href="#aH"/><use transform="matrix(0.05,0,0,0.05,10,0)" xlink:href="#aG"/><use transform="matrix(0.05,0,0,0.05,15.949999999999998,0)" xlink:href="#ak"/><use transform="matrix(0.05,0,0,0.05,25.950000000000003,0)" xlink:href="#aI"/><use transform="matrix(0.05,0,0,0.05,30.950000000000003,0)" xlink:href="#aJ"/><use transform="matrix(0.05,0,0,0.05,34.9,0)" xlink:href="#aK"/><use transform="matrix(0.05,0,0,0.05,38.85,0)" xlink:href="#am"/></g><g id="B"><use transform="matrix(0.05,0,0,0.05,0,0)" xlink:href="#aL"/><use transform="matrix(0.05,0,0,0.05,5.95,0)" xlink:href="#aM"/><use transform="matrix(0.05,0,0,0.05,12.949999999999998,0)" xlink:href="#aN"/><use transform="matrix(0.05,0,0,0.05,22.95,0)" xlink:href="#aO"/><use transform="matrix(0.05,0,0,0.05,27.950000000000003,0)" xlink:href="#aP"/></g><g id="C"><use transform="matrix(0.05,0,0,0.05,0,0)" xlink:href="#aF"/><use transform="matrix(0.05,0,0,0.05,10,0)" xlink:href="#ap"/><use transform="matrix(0.05,0,0,0.05,19,0)" xlink:href="#am"/><use transform="matrix(0.05,0,0,0.05,29,0)" xlink:href="#aG"/></g><g id="D"><use transform="matrix(0.05,0,0,0.05,0,0)" xlink:href="#aX"/><use transform="matrix(0.05,0,0,0.05,9,0)" xlink:href="#ak"/><use transform="matrix(0.05,0,0,0.05,19,0)" xlink:href="#aY"/><use transform="matrix(0.05,0,0,0.05,33.95,0)" xlink:href="#aY"/><use transform="matrix(0.05,0,0,0.05,48.900000000000006,0)" xlink:href="#am"/><use transform="matrix(0.05,0,0,0.05,58.900000000000006,0)" xlink:href="#aZ"/><use transform="matrix(0.05,0,0,0.05,68.9,0)" xlink:href="#aD"/><use transform="matrix(0.05,0,0,0.05,73.9,0)" xlink:href="#ap"/></g><path fill="#303030" d="M140-251c80 0 125 45 125 126S219 4 139 4C58 4 15-44 15-125s44-126 125-126zm-1 214c52 0 73-35 73-88 0-50-21-86-72-86-52 0-73 35-73 86s22 88 72 88" id="bG"/><g id="E"><use transform="matrix(0.05,0,0,0.05,0,0)" xlink:href="#ag"/><use transform="matrix(0.05,0,0,0.05,12.950000000000001,0)" xlink:href="#bG"/><use transform="matrix(0.05,0,0,0.05,26.950000000000003,0)" xlink:href="#bs"/><use transform="matrix(0.05,0,0,0.05,39.900000000000006,0)" xlink:href="#be"/><use transform="matrix(0.05,0,0,0.05,50.85000000000001,0)" xlink:href="#af"/><use transform="matrix(0.05,0,0,0.05,62.85,0)" xlink:href="#ag"/><use transform="matrix(0.05,0,0,0.05,75.80000000000001,0)" xlink:href="#ae"/></g><path fill="#303030" d="M110-194c64 0 96 36 96 99 0 64-35 99-97 99-61 0-95-36-95-99 0-62 34-99 96-99zm-1 164c35 0 45-28 45-65 0-40-10-65-43-65-34 0-45 26-45 65 0 36 10 65 43 65" id="bH"/><path fill="#303030" d="M135-194c87-1 58 113 63 194h-50c-7-57 23-157-34-157-59 0-34 97-39 157H25l-1-190h47c2 12-1 28 3 38 12-26 28-41 61-42" id="bI"/><path fill="#303030" d="M195-6C206 82 75 100 31 46c-4-6-6-13-8-21l49-6c3 16 16 24 34 25 40 0 42-37 40-79-11 22-30 35-61 35-53 0-70-43-70-97 0-56 18-96 73-97 30 0 46 14 59 34l2-30h47zm-90-29c32 0 41-27 41-63 0-35-9-62-40-62-32 0-39 29-40 63 0 36 9 62 39 62" id="bJ"/><g id="F"><use transform="matrix(0.05,0,0,0.05,0,0)" xlink:href="#aV"/><use transform="matrix(0.05,0,0,0.05,14.950000000000001,0)" xlink:href="#bH"/><use transform="matrix(0.05,0,0,0.05,25.900000000000002,0)" xlink:href="#bI"/><use transform="matrix(0.05,0,0,0.05,36.85,0)" xlink:href="#bJ"/><use transform="matrix(0.05,0,0,0.05,47.800000000000004,0)" xlink:href="#bH"/></g><g id="G"><use transform="matrix(0.05,0,0,0.05,0,0)" xlink:href="#aF"/><use transform="matrix(0.05,0,0,0.05,10,0)" xlink:href="#ap"/><use transform="matrix(0.05,0,0,0.05,19,0)" xlink:href="#am"/><use transform="matrix(0.05,0,0,0.05,29,0)" xlink:href="#aG"/><use transform="matrix(0.05,0,0,0.05,34.95,0)" xlink:href="#ap"/></g><g id="H"><use transform="matrix(0.05,0,0,0.05,0,0)" xlink:href="#aH"/><use transform="matrix(0.05,0,0,0.05,10,0)" xlink:href="#aG"/><use transform="matrix(0.05,0,0,0.05,15.949999999999998,0)" xlink:href="#ak"/><use transform="matrix(0.05,0,0,0.05,25.950000000000003,0)" xlink:href="#aI"/><use transform="matrix(0.05,0,0,0.05,30.950000000000003,0)" xlink:href="#aJ"/><use transform="matrix(0.05,0,0,0.05,34.9,0)" xlink:href="#aK"/><use transform="matrix(0.05,0,0,0.05,38.85,0)" xlink:href="#am"/><use transform="matrix(0.05,0,0,0.05,48.85,0)" xlink:href="#ap"/></g><g id="I"><use transform="matrix(0.05,0,0,0.05,0,0)" xlink:href="#aX"/><use transform="matrix(0.05,0,0,0.05,9,0)" xlink:href="#ak"/><use transform="matrix(0.05,0,0,0.05,19,0)" xlink:href="#aY"/><use transform="matrix(0.05,0,0,0.05,33.95,0)" xlink:href="#aY"/><use transform="matrix(0.05,0,0,0.05,48.900000000000006,0)" xlink:href="#am"/><use transform="matrix(0.05,0,0,0.05,58.900000000000006,0)" xlink:href="#aZ"/><use transform="matrix(0.05,0,0,0.05,68.9,0)" xlink:href="#aD"/><use transform="matrix(0.05,0,0,0.05,73.9,0)" xlink:href="#ap"/></g><g id="J"><use transform="matrix(0.05,0,0,0.05,0,0)" xlink:href="#aL"/><use transform="matrix(0.05,0,0,0.05,5.95,0)" xlink:href="#aM"/><use transform="matrix(0.05,0,0,0.05,12.949999999999998,0)" xlink:href="#aN"/><use transform="matrix(0.05,0,0,0.05,22.95,0)" xlink:href="#aO"/><use transform="matrix(0.05,0,0,0.05,27.950000000000003,0)" xlink:href="#aP"/><use transform="matrix(0.05,0,0,0.05,32.95,0)" xlink:href="#aS"/></g><path fill="#ef8d22" d="M33-154v-36h34v36H33zM33 0v-36h34V0H33" id="bK"/><g id="K"><use transform="matrix(0.05,0,0,0.05,0,0)" xlink:href="#Y"/><use transform="matrix(0.05,0,0,0.05,5.95,0)" xlink:href="#Z"/><use transform="matrix(0.05,0,0,0.05,15.949999999999998,0)" xlink:href="#aa"/><use transform="matrix(0.05,0,0,0.05,25.950000000000003,0)" xlink:href="#bK"/></g><path fill="#ef8d22" d="M108 0H70L1-190h34L89-25l56-165h34" id="bL"/><g id="L"><use transform="matrix(0.05,0,0,0.05,0,0)" xlink:href="#ac"/><use transform="matrix(0.05,0,0,0.05,9,0)" xlink:href="#bi"/><use transform="matrix(0.05,0,0,0.05,19,0)" xlink:href="#bL"/><use transform="matrix(0.05,0,0,0.05,28,0)" xlink:href="#Z"/></g><g id="M"><use transform="matrix(0.05,0,0,0.05,0,0)" xlink:href="#bk"/><use transform="matrix(0.05,0,0,0.05,5,0)" xlink:href="#bl"/><use transform="matrix(0.05,0,0,0.05,15,0)" xlink:href="#bm"/><use transform="matrix(0.05,0,0,0.05,25,0)" xlink:href="#bj"/></g><path fill="#ef8d22" d="M100-194c62-1 85 37 85 99 1 63-27 99-86 99S16-35 15-95c0-66 28-99 85-99zM99-20c44 1 53-31 53-75 0-43-8-75-51-75s-53 32-53 75 10 74 51 75" id="bM"/><g id="N"><use transform="matrix(0.05,0,0,0.05,0,0)" xlink:href="#ad"/><use transform="matrix(0.05,0,0,0.05,5,0)" xlink:href="#bM"/></g><path fill="#ef8d22" d="M126-127c33 6 58 20 58 59 0 88-139 92-164 29-3-8-5-16-6-25l32-3c6 27 21 44 54 44 32 0 52-15 52-46 0-38-36-46-79-43v-28c39 1 72-4 72-42 0-27-17-43-46-43-28 0-47 15-49 41l-32-3c6-42 35-63 81-64 48-1 79 21 79 65 0 36-21 52-52 59" id="bN"/><g id="O"><use transform="matrix(0.05,0,0,0.05,0,0)" xlink:href="#ac"/><use transform="matrix(0.05,0,0,0.05,9,0)" xlink:href="#bN"/></g><path fill="#ef8d22" d="M24 0v-261h32V0H24" id="bO"/><path fill="#ef8d22" d="M-5 72V49h209v23H-5" id="bP"/><path fill="#ef8d22" d="M232-93c-1 65-40 97-104 97C67 4 28-28 28-90v-158h33c8 89-33 224 67 224 102 0 64-133 71-224h33v155" id="bQ"/><path fill="#ef8d22" d="M233-177c-1 41-23 64-60 70L243 0h-38l-65-103H63V0H30v-248c88 3 205-21 203 71zM63-129c60-2 137 13 137-47 0-61-80-42-137-45v92" id="bR"/><path fill="#ef8d22" d="M30 0v-248h33v221h125V0H30" id="bS"/><g id="P"><use transform="matrix(0.05,0,0,0.05,0,0)" xlink:href="#ad"/><use transform="matrix(0.05,0,0,0.05,5,0)" xlink:href="#Y"/><use transform="matrix(0.05,0,0,0.05,10.95,0)" xlink:href="#bi"/><use transform="matrix(0.05,0,0,0.05,20.95,0)" xlink:href="#bg"/><use transform="matrix(0.05,0,0,0.05,24.9,0)" xlink:href="#bO"/><use transform="matrix(0.05,0,0,0.05,28.849999999999994,0)" xlink:href="#bP"/><use transform="matrix(0.05,0,0,0.05,38.849999999999994,0)" xlink:href="#bQ"/><use transform="matrix(0.05,0,0,0.05,51.79999999999999,0)" xlink:href="#bR"/><use transform="matrix(0.05,0,0,0.05,64.75,0)" xlink:href="#bS"/></g><g id="Q"><use transform="matrix(0.05,0,0,0.05,0,0)" xlink:href="#aB"/><use transform="matrix(0.05,0,0,0.05,12.950000000000001,0)" xlink:href="#aJ"/><use transform="matrix(0.05,0,0,0.05,16.900000000000002,0)" xlink:href="#ap"/><use transform="matrix(0.05,0,0,0.05,25.900000000000002,0)" xlink:href="#aH"/><use transform="matrix(0.05,0,0,0.05,35.900000000000006,0)" xlink:href="#aK"/><use transform="matrix(0.05,0,0,0.05,39.85000000000001,0)" xlink:href="#aC"/><use transform="matrix(0.05,0,0,0.05,49.85000000000001,0)" xlink:href="#br"/></g><g id="S"><use transform="matrix(0.05,0,0,0.05,0,0)" xlink:href="#au"/><use transform="matrix(0.05,0,0,0.05,5.95,0)" xlink:href="#av"/><use transform="matrix(0.05,0,0,0.05,15.949999999999998,0)" xlink:href="#aw"/></g></defs></g></svg>